<mxfile host="app.diagrams.net" modified="2021-09-15T09:37:05.333Z" agent="5.0 (Windows NT 10.0; Win64; x64) AppleWebKit/537.36 (KHTML, like Gecko) Chrome/93.0.4577.63 Safari/537.36" etag="eES9C4QuTxO6g2Ne3zK6" version="15.2.7" type="github">
  <diagram id="R2lEEEUBdFMjLlhIrx00" name="Page-1">
    <mxGraphModel dx="868" dy="482" grid="1" gridSize="10" guides="1" tooltips="1" connect="1" arrows="1" fold="1" page="1" pageScale="1" pageWidth="850" pageHeight="1100" math="0" shadow="0" extFonts="Permanent Marker^https://fonts.googleapis.com/css?family=Permanent+Marker">
      <root>
        <mxCell id="0" />
        <mxCell id="1" parent="0" />
        <mxCell id="JkFudz-ycmGlHzbNJkvK-16" value="User" style="swimlane;childLayout=stackLayout;horizontal=1;startSize=30;horizontalStack=0;rounded=1;fontSize=18;fontStyle=0;strokeWidth=2;resizeParent=0;resizeLast=1;shadow=0;dashed=0;align=center;" vertex="1" parent="1">
          <mxGeometry x="50" y="80" width="300" height="260" as="geometry" />
        </mxCell>
        <mxCell id="JkFudz-ycmGlHzbNJkvK-19" value="" style="shape=table;startSize=0;container=1;collapsible=1;childLayout=tableLayout;fixedRows=1;rowLines=0;fontStyle=0;align=center;resizeLast=1;strokeColor=none;fillColor=none;" vertex="1" parent="JkFudz-ycmGlHzbNJkvK-16">
          <mxGeometry y="30" width="300" height="30" as="geometry" />
        </mxCell>
        <mxCell id="JkFudz-ycmGlHzbNJkvK-20" value="" style="shape=partialRectangle;collapsible=0;dropTarget=0;pointerEvents=0;fillColor=none;top=0;left=0;bottom=1;right=0;points=[[0,0.5],[1,0.5]];portConstraint=eastwest;" vertex="1" parent="JkFudz-ycmGlHzbNJkvK-19">
          <mxGeometry width="300" height="30" as="geometry" />
        </mxCell>
        <mxCell id="JkFudz-ycmGlHzbNJkvK-21" value="PK" style="shape=partialRectangle;connectable=0;fillColor=none;top=0;left=0;bottom=0;right=0;fontStyle=1;overflow=hidden;fontSize=17;" vertex="1" parent="JkFudz-ycmGlHzbNJkvK-20">
          <mxGeometry width="30" height="30" as="geometry" />
        </mxCell>
        <mxCell id="JkFudz-ycmGlHzbNJkvK-22" value="id" style="shape=partialRectangle;connectable=0;fillColor=none;top=0;left=0;bottom=0;right=0;align=left;spacingLeft=6;fontStyle=5;overflow=hidden;fontSize=17;" vertex="1" parent="JkFudz-ycmGlHzbNJkvK-20">
          <mxGeometry x="30" width="270" height="30" as="geometry" />
        </mxCell>
        <mxCell id="JkFudz-ycmGlHzbNJkvK-17" value="username&#xa;password&#xa;email&#xa;first_name&#xa;last_name&#xa;is_superuser&#xa;is_staff&#xa;is_active&#xa;date_joined&#xa;last_login" style="align=left;strokeColor=none;fillColor=none;spacingLeft=4;fontSize=16;verticalAlign=top;resizable=0;rotatable=0;part=1;" vertex="1" parent="JkFudz-ycmGlHzbNJkvK-16">
          <mxGeometry y="60" width="300" height="200" as="geometry" />
        </mxCell>
        <mxCell id="JkFudz-ycmGlHzbNJkvK-47" style="edgeStyle=orthogonalEdgeStyle;rounded=0;orthogonalLoop=1;jettySize=auto;html=1;fontSize=17;startArrow=ERzeroToMany;startFill=1;endArrow=ERzeroToMany;endFill=1;" edge="1" parent="1" source="JkFudz-ycmGlHzbNJkvK-25">
          <mxGeometry relative="1" as="geometry">
            <mxPoint x="590" y="247" as="targetPoint" />
          </mxGeometry>
        </mxCell>
        <mxCell id="JkFudz-ycmGlHzbNJkvK-25" value="Discussion" style="swimlane;childLayout=stackLayout;horizontal=1;startSize=30;horizontalStack=0;rounded=1;fontSize=18;fontStyle=0;strokeWidth=2;resizeParent=0;resizeLast=1;shadow=0;dashed=0;align=center;" vertex="1" parent="1">
          <mxGeometry x="440" y="400" width="300" height="190" as="geometry" />
        </mxCell>
        <mxCell id="JkFudz-ycmGlHzbNJkvK-26" value="" style="shape=table;startSize=0;container=1;collapsible=1;childLayout=tableLayout;fixedRows=1;rowLines=0;fontStyle=0;align=center;resizeLast=1;strokeColor=none;fillColor=none;" vertex="1" parent="JkFudz-ycmGlHzbNJkvK-25">
          <mxGeometry y="30" width="300" height="30" as="geometry" />
        </mxCell>
        <mxCell id="JkFudz-ycmGlHzbNJkvK-27" value="" style="shape=partialRectangle;collapsible=0;dropTarget=0;pointerEvents=0;fillColor=none;top=0;left=0;bottom=1;right=0;points=[[0,0.5],[1,0.5]];portConstraint=eastwest;" vertex="1" parent="JkFudz-ycmGlHzbNJkvK-26">
          <mxGeometry width="300" height="30" as="geometry" />
        </mxCell>
        <mxCell id="JkFudz-ycmGlHzbNJkvK-28" value="PK" style="shape=partialRectangle;connectable=0;fillColor=none;top=0;left=0;bottom=0;right=0;fontStyle=1;overflow=hidden;fontSize=17;" vertex="1" parent="JkFudz-ycmGlHzbNJkvK-27">
          <mxGeometry width="30" height="30" as="geometry" />
        </mxCell>
        <mxCell id="JkFudz-ycmGlHzbNJkvK-29" value="id" style="shape=partialRectangle;connectable=0;fillColor=none;top=0;left=0;bottom=0;right=0;align=left;spacingLeft=6;fontStyle=5;overflow=hidden;fontSize=17;" vertex="1" parent="JkFudz-ycmGlHzbNJkvK-27">
          <mxGeometry x="30" width="270" height="30" as="geometry" />
        </mxCell>
        <mxCell id="JkFudz-ycmGlHzbNJkvK-30" value="author_id &lt;FK&gt;&#xa;forum_id &lt;FK&gt;&#xa;title&#xa;text" style="align=left;strokeColor=none;fillColor=none;spacingLeft=4;fontSize=16;verticalAlign=top;resizable=0;rotatable=0;part=1;" vertex="1" parent="JkFudz-ycmGlHzbNJkvK-25">
          <mxGeometry y="60" width="300" height="130" as="geometry" />
        </mxCell>
        <mxCell id="JkFudz-ycmGlHzbNJkvK-32" value="Comment" style="swimlane;childLayout=stackLayout;horizontal=1;startSize=30;horizontalStack=0;rounded=1;fontSize=18;fontStyle=0;strokeWidth=2;resizeParent=0;resizeLast=1;shadow=0;dashed=0;align=center;" vertex="1" parent="1">
          <mxGeometry x="50" y="400" width="300" height="190" as="geometry" />
        </mxCell>
        <mxCell id="JkFudz-ycmGlHzbNJkvK-33" value="" style="shape=table;startSize=0;container=1;collapsible=1;childLayout=tableLayout;fixedRows=1;rowLines=0;fontStyle=0;align=center;resizeLast=1;strokeColor=none;fillColor=none;" vertex="1" parent="JkFudz-ycmGlHzbNJkvK-32">
          <mxGeometry y="30" width="300" height="30" as="geometry" />
        </mxCell>
        <mxCell id="JkFudz-ycmGlHzbNJkvK-34" value="" style="shape=partialRectangle;collapsible=0;dropTarget=0;pointerEvents=0;fillColor=none;top=0;left=0;bottom=1;right=0;points=[[0,0.5],[1,0.5]];portConstraint=eastwest;" vertex="1" parent="JkFudz-ycmGlHzbNJkvK-33">
          <mxGeometry width="300" height="30" as="geometry" />
        </mxCell>
        <mxCell id="JkFudz-ycmGlHzbNJkvK-35" value="PK" style="shape=partialRectangle;connectable=0;fillColor=none;top=0;left=0;bottom=0;right=0;fontStyle=1;overflow=hidden;fontSize=17;" vertex="1" parent="JkFudz-ycmGlHzbNJkvK-34">
          <mxGeometry width="30" height="30" as="geometry" />
        </mxCell>
        <mxCell id="JkFudz-ycmGlHzbNJkvK-36" value="id" style="shape=partialRectangle;connectable=0;fillColor=none;top=0;left=0;bottom=0;right=0;align=left;spacingLeft=6;fontStyle=5;overflow=hidden;fontSize=17;" vertex="1" parent="JkFudz-ycmGlHzbNJkvK-34">
          <mxGeometry x="30" width="270" height="30" as="geometry" />
        </mxCell>
        <mxCell id="JkFudz-ycmGlHzbNJkvK-37" value="author_id &lt;FK&gt;&#xa;discussion_id &lt;FK&gt;&#xa;text" style="align=left;strokeColor=none;fillColor=none;spacingLeft=4;fontSize=16;verticalAlign=top;resizable=0;rotatable=0;part=1;" vertex="1" parent="JkFudz-ycmGlHzbNJkvK-32">
          <mxGeometry y="60" width="300" height="130" as="geometry" />
        </mxCell>
        <mxCell id="JkFudz-ycmGlHzbNJkvK-38" value="Tag" style="swimlane;childLayout=stackLayout;horizontal=1;startSize=30;horizontalStack=0;rounded=1;fontSize=18;fontStyle=0;strokeWidth=2;resizeParent=0;resizeLast=1;shadow=0;dashed=0;align=center;" vertex="1" parent="1">
          <mxGeometry x="440" y="150" width="300" height="95" as="geometry" />
        </mxCell>
        <mxCell id="JkFudz-ycmGlHzbNJkvK-39" value="" style="shape=table;startSize=0;container=1;collapsible=1;childLayout=tableLayout;fixedRows=1;rowLines=0;fontStyle=0;align=center;resizeLast=1;strokeColor=none;fillColor=none;" vertex="1" parent="JkFudz-ycmGlHzbNJkvK-38">
          <mxGeometry y="30" width="300" height="30" as="geometry" />
        </mxCell>
        <mxCell id="JkFudz-ycmGlHzbNJkvK-40" value="" style="shape=partialRectangle;collapsible=0;dropTarget=0;pointerEvents=0;fillColor=none;top=0;left=0;bottom=1;right=0;points=[[0,0.5],[1,0.5]];portConstraint=eastwest;" vertex="1" parent="JkFudz-ycmGlHzbNJkvK-39">
          <mxGeometry width="300" height="30" as="geometry" />
        </mxCell>
        <mxCell id="JkFudz-ycmGlHzbNJkvK-41" value="PK" style="shape=partialRectangle;connectable=0;fillColor=none;top=0;left=0;bottom=0;right=0;fontStyle=1;overflow=hidden;fontSize=17;" vertex="1" parent="JkFudz-ycmGlHzbNJkvK-40">
          <mxGeometry width="30" height="30" as="geometry" />
        </mxCell>
        <mxCell id="JkFudz-ycmGlHzbNJkvK-42" value="id" style="shape=partialRectangle;connectable=0;fillColor=none;top=0;left=0;bottom=0;right=0;align=left;spacingLeft=6;fontStyle=5;overflow=hidden;fontSize=17;" vertex="1" parent="JkFudz-ycmGlHzbNJkvK-40">
          <mxGeometry x="30" width="270" height="30" as="geometry" />
        </mxCell>
        <mxCell id="JkFudz-ycmGlHzbNJkvK-43" value="title" style="align=left;strokeColor=none;fillColor=none;spacingLeft=4;fontSize=16;verticalAlign=top;resizable=0;rotatable=0;part=1;" vertex="1" parent="JkFudz-ycmGlHzbNJkvK-38">
          <mxGeometry y="60" width="300" height="35" as="geometry" />
        </mxCell>
        <mxCell id="JkFudz-ycmGlHzbNJkvK-45" style="edgeStyle=orthogonalEdgeStyle;rounded=0;orthogonalLoop=1;jettySize=auto;html=1;exitX=1;exitY=0.25;exitDx=0;exitDy=0;fontSize=17;startArrow=ERzeroToMany;startFill=1;endArrow=ERone;endFill=0;" edge="1" parent="1" source="JkFudz-ycmGlHzbNJkvK-37">
          <mxGeometry relative="1" as="geometry">
            <mxPoint x="440" y="493" as="targetPoint" />
            <Array as="points">
              <mxPoint x="440" y="493" />
            </Array>
          </mxGeometry>
        </mxCell>
        <mxCell id="JkFudz-ycmGlHzbNJkvK-46" style="edgeStyle=orthogonalEdgeStyle;rounded=0;orthogonalLoop=1;jettySize=auto;html=1;entryX=0.5;entryY=0;entryDx=0;entryDy=0;fontSize=17;endArrow=ERzeroToOne;endFill=1;startArrow=ERone;startFill=0;" edge="1" parent="1" source="JkFudz-ycmGlHzbNJkvK-17" target="JkFudz-ycmGlHzbNJkvK-32">
          <mxGeometry relative="1" as="geometry" />
        </mxCell>
        <mxCell id="JkFudz-ycmGlHzbNJkvK-48" value="Forum" style="swimlane;childLayout=stackLayout;horizontal=1;startSize=30;horizontalStack=0;rounded=1;fontSize=18;fontStyle=0;strokeWidth=2;resizeParent=0;resizeLast=1;shadow=0;dashed=0;align=center;" vertex="1" parent="1">
          <mxGeometry x="440" y="670" width="300" height="90" as="geometry" />
        </mxCell>
        <mxCell id="JkFudz-ycmGlHzbNJkvK-49" value="" style="shape=table;startSize=0;container=1;collapsible=1;childLayout=tableLayout;fixedRows=1;rowLines=0;fontStyle=0;align=center;resizeLast=1;strokeColor=none;fillColor=none;" vertex="1" parent="JkFudz-ycmGlHzbNJkvK-48">
          <mxGeometry y="30" width="300" height="30" as="geometry" />
        </mxCell>
        <mxCell id="JkFudz-ycmGlHzbNJkvK-50" value="" style="shape=partialRectangle;collapsible=0;dropTarget=0;pointerEvents=0;fillColor=none;top=0;left=0;bottom=1;right=0;points=[[0,0.5],[1,0.5]];portConstraint=eastwest;" vertex="1" parent="JkFudz-ycmGlHzbNJkvK-49">
          <mxGeometry width="300" height="30" as="geometry" />
        </mxCell>
        <mxCell id="JkFudz-ycmGlHzbNJkvK-51" value="PK" style="shape=partialRectangle;connectable=0;fillColor=none;top=0;left=0;bottom=0;right=0;fontStyle=1;overflow=hidden;fontSize=17;" vertex="1" parent="JkFudz-ycmGlHzbNJkvK-50">
          <mxGeometry width="30" height="30" as="geometry" />
        </mxCell>
        <mxCell id="JkFudz-ycmGlHzbNJkvK-52" value="id" style="shape=partialRectangle;connectable=0;fillColor=none;top=0;left=0;bottom=0;right=0;align=left;spacingLeft=6;fontStyle=5;overflow=hidden;fontSize=17;" vertex="1" parent="JkFudz-ycmGlHzbNJkvK-50">
          <mxGeometry x="30" width="270" height="30" as="geometry" />
        </mxCell>
        <mxCell id="JkFudz-ycmGlHzbNJkvK-53" value="title" style="align=left;strokeColor=none;fillColor=none;spacingLeft=4;fontSize=16;verticalAlign=top;resizable=0;rotatable=0;part=1;" vertex="1" parent="JkFudz-ycmGlHzbNJkvK-48">
          <mxGeometry y="60" width="300" height="30" as="geometry" />
        </mxCell>
        <mxCell id="JkFudz-ycmGlHzbNJkvK-54" style="edgeStyle=orthogonalEdgeStyle;rounded=0;orthogonalLoop=1;jettySize=auto;html=1;entryX=0.5;entryY=0;entryDx=0;entryDy=0;fontSize=17;startArrow=ERone;startFill=0;endArrow=ERone;endFill=0;" edge="1" parent="1" source="JkFudz-ycmGlHzbNJkvK-30" target="JkFudz-ycmGlHzbNJkvK-48">
          <mxGeometry relative="1" as="geometry" />
        </mxCell>
      </root>
    </mxGraphModel>
  </diagram>
</mxfile>
